<svg width="20" height="20" viewBox="0 0 20 20" fill="none" xmlns="http://www.w3.org/2000/svg">
<g clip-path="url(#clip0_508_6366)">
<path d="M2.86 19.5H17.14C18.44 19.5 19.5 18.44 19.5 17.14V2.86C19.5 1.56 18.44 0.5 17.14 0.5H2.86C1.56 0.5 0.5 1.56 0.5 2.86V17.14C0.5 18.44 1.56 19.5 2.86 19.5ZM1.96 2.86C1.96 2.36 2.36 1.96 2.86 1.96H17.14C17.64 1.96 18.04 2.36 18.04 2.86V13.41L15.58 10.95C15.29 10.66 14.83 10.66 14.55 10.95L11.29 14.2L6.5 9.42C6.36 9.28 6.17 9.21 5.98 9.21C5.79 9.21 5.61 9.28 5.47 9.42L1.96 12.92V2.86Z" fill="#959BA4"/>
<path d="M11.2607 9.07023C12.6607 9.07023 13.8007 7.93023 13.8007 6.53023C13.8007 5.13023 12.6607 3.99023 11.2607 3.99023C9.8607 3.99023 8.7207 5.13023 8.7207 6.53023C8.7307 7.93023 9.8707 9.07023 11.2607 9.07023Z" fill="#959BA4"/>
</g>
<defs>
<clipPath id="clip0_508_6366">
<rect width="20" height="20" fill="white"/>
</clipPath>
</defs>
</svg>
