<svg width="30" height="30" viewBox="0 0 30 30" fill="none" xmlns="http://www.w3.org/2000/svg">
<g clip-path="url(#clip0_4429_14015)">
<path d="M22.5096 0H7.49043C3.35358 0 0 3.35358 0 7.49043V22.5096C0 26.6464 3.35358 30 7.49043 30H22.5096C26.6464 30 30 26.6464 30 22.5096V7.49043C30 3.35358 26.6464 0 22.5096 0Z" fill="url(#paint0_linear_4429_14015)"/>
<path d="M22.5096 0H7.49043C3.35358 0 0 3.35358 0 7.49043V22.5096C0 26.6464 3.35358 30 7.49043 30H22.5096C26.6464 30 30 26.6464 30 22.5096V7.49043C30 3.35358 26.6464 0 22.5096 0Z" fill="url(#paint1_radial_4429_14015)"/>
<path fill-rule="evenodd" clip-rule="evenodd" d="M15.1934 23.9486C13.4269 23.9486 12.606 23.6896 11.1791 22.6536C10.2765 23.8191 7.41835 24.73 7.29369 23.1716C7.29369 22.0018 7.03581 21.0133 6.74355 19.9342C6.39542 18.6046 6 17.124 6 14.9786C6 9.85477 10.1862 6 15.1461 6C20.1103 6 23.9999 10.0447 23.9999 15.0261C24.0166 19.9305 20.0765 23.9225 15.1934 23.9486ZM15.2664 10.4289C12.851 10.3037 10.9685 11.9829 10.5516 14.616C10.2077 16.796 10.818 19.4507 11.3381 19.5888C11.5874 19.6493 12.2149 19.1399 12.606 18.7471C13.2527 19.1958 14.0058 19.4653 14.7894 19.5284C17.2922 19.6493 19.4308 17.7356 19.5988 15.2247C19.6966 12.7084 17.7696 10.5772 15.2664 10.4332V10.4289Z" fill="white"/>
</g>
<defs>
<linearGradient id="paint0_linear_4429_14015" x1="3.53541" y1="22.8161" x2="30" y2="15" gradientUnits="userSpaceOnUse">
<stop stop-color="#44CCFF"/>
<stop offset="0.662" stop-color="#5533EE"/>
<stop offset="1" stop-color="#9933DD"/>
</linearGradient>
<radialGradient id="paint1_radial_4429_14015" cx="0" cy="0" r="1" gradientUnits="userSpaceOnUse" gradientTransform="translate(-0.713724 -13.1756) rotate(51.356) scale(36.4055 15)">
<stop stop-color="#0000FF"/>
<stop offset="1" stop-opacity="0"/>
</radialGradient>
<clipPath id="clip0_4429_14015">
<rect width="30" height="30" rx="15" fill="white"/>
</clipPath>
</defs>
</svg>
