<svg width="18" height="18" viewBox="0 0 18 18" fill="none" xmlns="http://www.w3.org/2000/svg">
<circle cx="9" cy="9" r="9" fill="#E3E5EB"/>
<g clip-path="url(#clip0_3958_17009)">
<path d="M9 18C13.9706 18 18 13.9706 18 9C18 4.02944 13.9706 0 9 0C4.02944 0 0 4.02944 0 9C0 13.9706 4.02944 18 9 18Z" fill="#00A3E3"/>
<path d="M3.35188 9.44037C4.40398 8.86085 5.5784 8.37717 6.67573 7.89102C8.56355 7.09474 10.4589 6.31227 12.3733 5.5838C12.7458 5.45967 13.4151 5.33832 13.4807 5.89032C13.4447 6.67167 13.297 7.44844 13.1956 8.22522C12.9382 9.93342 12.6407 11.6358 12.3507 13.3383C12.2507 13.9054 11.5403 14.199 11.0857 13.8361C9.99328 13.0981 8.89243 12.3675 7.81393 11.6124C7.46068 11.2534 7.78828 10.7379 8.10373 10.4815C9.0035 9.59479 9.95773 8.84142 10.8105 7.90887C11.0405 7.35342 10.3609 7.82157 10.1367 7.96504C8.90488 8.81389 7.70323 9.71457 6.40453 10.4606C5.74115 10.8258 4.96798 10.5137 4.3049 10.3098C3.71038 10.0638 2.83918 9.81574 3.3518 9.44045L3.35188 9.44037Z" fill="white"/>
</g>
<defs>
<clipPath id="clip0_3958_17009">
<rect width="18" height="18" fill="white"/>
</clipPath>
</defs>
</svg>
