<svg width="16" height="16" viewBox="0 0 16 16" fill="none" xmlns="http://www.w3.org/2000/svg">
<g clip-path="url(#clip0_2039_11703)">
<path d="M8 0C12.4182 0 16 3.58182 16 8C16 12.4182 12.4182 16 8 16C3.58182 16 0 12.4182 0 8C0 3.58182 3.58182 0 8 0ZM10.7596 11.2611C10.9065 10.8098 11.5964 6.31018 11.6811 5.42327C11.7069 5.15491 11.6218 4.97636 11.456 4.89636C11.2549 4.8 10.9575 4.848 10.6116 4.97273C10.1378 5.14364 4.08145 7.71491 3.73164 7.864C3.4 8.00509 3.08618 8.15855 3.08618 8.38145C3.08618 8.53818 3.17927 8.62618 3.43527 8.71745C3.70145 8.81236 4.37236 9.01564 4.76909 9.12509C5.15091 9.23055 5.58473 9.13891 5.82836 8.98764C6.08618 8.82727 9.06509 6.83455 9.27855 6.65964C9.492 6.48509 9.66255 6.70873 9.488 6.88364C9.31345 7.05818 7.26909 9.04255 6.99927 9.31746C6.67164 9.65091 6.904 9.99673 7.124 10.1353C7.37455 10.2935 9.17818 11.5029 9.44982 11.6971C9.72145 11.8913 9.99673 11.9793 10.2491 11.9793C10.5015 11.9789 10.6342 11.6465 10.7596 11.2611Z" fill="#374151"/>
</g>
<defs>
<clipPath id="clip0_2039_11703">
<rect width="16" height="16" fill="white"/>
</clipPath>
</defs>
</svg>
