<svg width="18" height="18" viewBox="0 0 18 18" fill="none" xmlns="http://www.w3.org/2000/svg">
<circle cx="9" cy="9" r="9" fill="black"/>
<path fill-rule="evenodd" clip-rule="evenodd" d="M14 7.14295C14 7.23654 13.9585 7.32389 13.8817 7.38317C13.8082 7.44244 13.7123 7.4518 13.6164 7.44868C13.0218 7.43308 12.0915 7.23342 11.6535 6.82474V10.7368C11.6535 12.54 10.1574 14.0001 8.30954 14.0001H7.96428C7.19063 14.0001 6.45534 13.7255 5.86072 13.2544C6.31787 13.4759 6.81979 13.607 7.34088 13.607H7.68615C9.53395 13.607 11.0301 12.147 11.0301 10.3438V6.43166C11.4681 6.83722 12.3984 7.04 12.993 7.0556C13.0889 7.0556 13.1848 7.04936 13.2583 6.99008C13.3319 6.93081 13.3766 6.84346 13.3766 6.74987C13.3766 6.30687 13.3766 5.57062 13.3766 5.18378C13.4981 5.21809 13.6228 5.24617 13.7475 5.27425C13.8945 5.30544 14 5.43023 14 5.57686C14 5.9637 14 6.70307 14 7.14295ZM7.74049 8.52498C7.67975 8.58425 7.59983 8.61545 7.51351 8.61545C6.63117 8.61545 5.91507 9.31426 5.91507 10.1753C5.91507 10.8523 6.35943 11.4232 6.97963 11.6384C6.7079 11.3577 6.53846 10.9833 6.53846 10.5684C6.53846 9.70735 7.25457 9.00853 8.13691 9.00853C8.22323 9.00853 8.30315 8.97733 8.36389 8.91806C8.42463 8.85879 8.4566 8.78079 8.4566 8.69656V7.76065C8.4566 7.67954 8.42143 7.59843 8.36389 7.53915C8.30635 7.47988 8.22323 7.44868 8.13691 7.44868H7.96428C7.91952 7.44868 7.87796 7.46116 7.8332 7.46116V8.30348C7.8332 8.38771 7.79804 8.4657 7.74049 8.52498ZM12.1107 4.56607C11.8453 4.3321 11.6215 4.02325 11.4617 3.60209C11.4137 3.48042 11.2954 3.39307 11.1612 3.39307H10.9246C11.2027 3.98893 11.6151 4.33834 12.1107 4.56295V4.56607Z" fill="#FE2C55"/>
<path fill-rule="evenodd" clip-rule="evenodd" d="M5.60165 13.0454C5.68157 13.1234 5.77748 13.1858 5.86379 13.2545C5.54091 13.0985 5.2372 12.9051 4.97825 12.6524C4.35166 12.0409 4 11.2111 4 10.3438V10.3188C4 8.51564 5.49615 7.05561 7.34396 7.05561H7.51659C7.60291 7.05561 7.68283 7.08993 7.74357 7.14609C7.80431 7.20536 7.83628 7.28335 7.83628 7.36758V7.46118C6.05241 7.52981 4.62339 8.95239 4.62339 10.7119V10.7369C4.62339 11.601 4.97505 12.4309 5.60165 13.0454ZM13.3733 5.18379C13.3733 5.03717 13.2678 4.90926 13.1208 4.88118C12.7627 4.80319 12.4206 4.7096 12.1073 4.56609C12.4622 4.87806 12.897 5.05588 13.3701 5.18379H13.3733ZM8.13679 12.1314C8.56197 12.1314 8.96798 11.966 9.26849 11.6759C9.569 11.3858 9.73524 10.9864 9.73524 10.5715V3.70817C9.73524 3.53659 9.8791 3.3962 10.0549 3.3962H10.9245C10.8957 3.33381 10.8637 3.27765 10.8382 3.20902C10.7902 3.08735 10.6719 3 10.5377 3H9.43153C9.2557 3 9.11184 3.14039 9.11184 3.31197V10.1753C9.11184 10.5902 8.94241 10.9864 8.64509 11.2797C8.34778 11.5729 7.93858 11.7352 7.51339 11.7352C7.32477 11.7352 7.14575 11.6977 6.97951 11.6385C7.27043 11.938 7.67963 12.1283 8.13679 12.1283V12.1314Z" fill="#25F4EE"/>
<path fill-rule="evenodd" clip-rule="evenodd" d="M7.68922 13.6068C9.53702 13.6068 11.0332 12.1468 11.0332 10.3436V6.43147C11.4711 6.83703 12.4014 7.03981 12.9961 7.05541C13.092 7.05541 13.1879 7.04917 13.2614 6.98989C13.3349 6.93062 13.3797 6.84327 13.3797 6.74968C13.3797 6.30668 13.3797 5.57043 13.3797 5.18359C12.9066 5.05568 12.4718 4.87785 12.1169 4.56588C11.6246 4.34127 11.209 3.98874 10.9309 3.396H10.0613C9.88549 3.396 9.74163 3.53638 9.74163 3.70797V10.5713C9.74163 10.9862 9.57219 11.3824 9.27488 11.6757C8.97757 11.9689 8.56836 12.1312 8.14318 12.1312C7.68602 12.1312 7.27682 11.9409 6.9859 11.6414C6.3689 11.4261 5.92133 10.8552 5.92133 10.1782C5.92133 9.31719 6.63744 8.61838 7.51978 8.61838C7.6061 8.61838 7.68602 8.58718 7.74676 8.52791C7.8075 8.46863 7.83947 8.39064 7.83947 8.30641V7.46409C6.0556 7.53272 4.62659 8.95531 4.62659 10.7148V10.7398C4.62659 11.6039 4.97825 12.4338 5.60484 13.0484C5.68476 13.1264 5.78067 13.1887 5.86698 13.2574C6.32414 13.4789 6.82605 13.6099 7.34715 13.6099H7.69241L7.68922 13.6068Z" fill="white"/>
</svg>
