<svg width="16" height="16" viewBox="0 0 16 16" fill="none" xmlns="http://www.w3.org/2000/svg">
<g clip-path="url(#clip0_2039_11610)">
<path d="M8.19141 2.46777C8.75231 2.50029 9.29619 2.67409 9.77148 2.97363C10.2468 3.27318 10.6379 3.68873 10.9092 4.18066C11.1804 4.67258 11.3227 5.2254 11.3223 5.78711C11.3225 6.28373 11.211 6.77392 10.9961 7.22168C10.7812 7.66948 10.4687 8.06343 10.0811 8.37402C12.1075 9.13545 13.5381 11.0169 13.5381 13.5391H12.4297C12.4297 10.7704 10.442 9.10938 7.99902 9.10938C5.55618 9.10955 3.56836 10.7706 3.56836 13.5391H2.46094C2.46094 11.0168 3.89145 9.1354 5.91797 8.37402C5.48008 8.02224 5.13809 7.56545 4.9248 7.0459C4.7115 6.52623 4.63371 5.96036 4.69824 5.40234C4.76282 4.84445 4.96771 4.3117 5.29395 3.85449C5.62023 3.39726 6.05776 3.03068 6.56445 2.78809C7.07105 2.54557 7.63067 2.43533 8.19141 2.46777ZM7.99902 3.57129C6.77741 3.57149 5.78418 4.56571 5.78418 5.78711C5.78442 7.0083 6.77756 8.00175 7.99902 8.00195C9.22066 8.00195 10.2146 7.00843 10.2148 5.78711C10.2148 4.56559 9.22081 3.57129 7.99902 3.57129Z" fill="#374151"/>
<path stroke="2px" d="M8.19141 2.46777C8.75231 2.50029 9.29619 2.67409 9.77148 2.97363C10.2468 3.27318 10.6379 3.68873 10.9092 4.18066C11.1804 4.67258 11.3227 5.2254 11.3223 5.78711C11.3225 6.28373 11.211 6.77392 10.9961 7.22168C10.7812 7.66948 10.4687 8.06343 10.0811 8.37402C12.1075 9.13545 13.5381 11.0169 13.5381 13.5391H12.4297C12.4297 10.7704 10.442 9.10938 7.99902 9.10938C5.55618 9.10955 3.56836 10.7706 3.56836 13.5391H2.46094C2.46094 11.0168 3.89145 9.1354 5.91797 8.37402C5.48008 8.02224 5.13809 7.56545 4.9248 7.0459C4.7115 6.52623 4.63371 5.96036 4.69824 5.40234C4.76282 4.84445 4.96771 4.3117 5.29395 3.85449C5.62023 3.39726 6.05776 3.03068 6.56445 2.78809C7.07105 2.54557 7.63067 2.43533 8.19141 2.46777ZM7.99902 3.57129C6.77741 3.57149 5.78418 4.56571 5.78418 5.78711C5.78442 7.0083 6.77756 8.00175 7.99902 8.00195C9.22066 8.00195 10.2146 7.00843 10.2148 5.78711C10.2148 4.56559 9.22081 3.57129 7.99902 3.57129Z"/>
</g>
<circle cx="8" cy="8" r="7.5" stroke="#374151" stroke-linejoin="round"/>
<defs>
<clipPath id="clip0_2039_11610">
<rect width="11.0769" height="11.0769" fill="white" transform="translate(2.46094 2.46191)"/>
</clipPath>
</defs>
</svg>