<svg width="18" height="18" viewBox="0 0 18 18" fill="none" xmlns="http://www.w3.org/2000/svg">
<circle cx="9" cy="9" r="8.5" fill="white" stroke="#F44336"/>
<path fill-rule="evenodd" clip-rule="evenodd" d="M13.6589 6.17455C13.3827 5.68327 13.083 5.59291 12.4727 5.55855C11.8631 5.51718 10.3301 5.5 9.00197 5.5C7.67134 5.5 6.1377 5.51718 5.5287 5.55791C4.9197 5.59291 4.61934 5.68264 4.34061 6.17455C4.05615 6.66518 3.90979 7.51027 3.90979 8.99809V9.00318C3.90979 10.4846 4.05615 11.3361 4.34061 11.8216C4.61934 12.3129 4.91906 12.402 5.52806 12.4434C6.1377 12.479 7.67134 12.5 9.00197 12.5C10.3301 12.5 11.8631 12.479 12.4733 12.444C13.0836 12.4026 13.3833 12.3135 13.6595 11.8223C13.9465 11.3367 14.0916 10.4853 14.0916 9.00382V8.99873C14.0916 7.51027 13.9465 6.66518 13.6589 6.17455Z" fill="#F44336"/>
<path fill-rule="evenodd" clip-rule="evenodd" d="M7.72815 10.909V7.09082L10.91 8.99991L7.72815 10.909Z" fill="#FAFAFA"/>
</svg>
