<svg xmlns="http://www.w3.org/2000/svg" version="1.1" xmlns:xlink="http://www.w3.org/1999/xlink" xmlns:svgjs="http://svgjs.dev/svgjs" width="28" height="26"><svg width="28" height="26" viewBox="0 0 28 26" fill="none" xmlns="http://www.w3.org/2000/svg">
<path d="M23.4096 0C23.634 0.0491031 23.8603 0.0859304 24.0812 0.147309C25.9471 0.657631 27.2028 2.31135 27.2045 4.27021C27.208 7.60221 27.2045 10.9324 27.2045 14.2644C27.2045 16.6635 27.2063 19.0625 27.2045 21.4598C27.2028 23.5484 25.8261 25.2583 23.7743 25.6371C23.1062 25.7598 22.4082 25.7195 21.6962 25.7546V5.25754H0.164572C-0.2265 2.22893 1.57102 0.394578 3.88062 0.0403347C3.91219 0.0350736 3.94024 0.0140295 3.9683 0C10.4482 0 16.928 0 23.4078 0H23.4096Z" fill="#005CFF"></path>
<path d="M2.32856 25.8422C2.21107 25.8089 2.09182 25.7774 1.97432 25.7405C1.01682 25.4442 0.332883 24.8532 0.087367 23.8623C-0.158148 22.8698 0.118933 21.9947 0.853727 21.2914C2.87922 19.3519 4.91875 17.4263 6.95302 15.4937C7.11962 15.3342 7.28798 15.1763 7.49491 14.9799H0.146992V9.95386H16.7228V25.7072H11.4705V18.6522C11.3144 18.7977 11.1987 18.9047 11.0847 19.0134C9.13285 20.8671 7.17048 22.7137 5.23266 24.5813C4.61186 25.1794 3.97702 25.7195 3.08791 25.8422H2.33032H2.32856Z" fill="#005CFF"></path>
</svg><style>@media (prefers-color-scheme: light) { :root { filter: none; } }
@media (prefers-color-scheme: dark) { :root { filter: none; } }
</style></svg>